<svg xmlns="http://www.w3.org/2000/svg" viewBox="0 0 120 120" width="120" height="120">
  <!-- TikTok: Black circle with musical note in 3-color offset -->
  <circle cx="60" cy="60" r="58" fill="#000000"/>
  <!-- Cyan offset layer -->
  <g transform="translate(1.5,-1.5)">
    <path d="M65,30 L65,75 C65,83 58,89 50,89 C42,89 36,83 36,75 C36,67 42,61 50,61 C52,61 54,61.5 56,62.5 L56,52 C54,51.5 52,51 50,51 C36,51 25,62 25,75 C25,88 36,99 50,99 C64,99 75,88 75,75 L75,48 C79,52 85,55 92,56 L92,45 C83,44 76,38 74,30 Z" fill="#25F4EE"/>
  </g>
  <!-- Red offset layer -->
  <g transform="translate(-1.5,1.5)">
    <path d="M65,30 L65,75 C65,83 58,89 50,89 C42,89 36,83 36,75 C36,67 42,61 50,61 C52,61 54,61.5 56,62.5 L56,52 C54,51.5 52,51 50,51 C36,51 25,62 25,75 C25,88 36,99 50,99 C64,99 75,88 75,75 L75,48 C79,52 85,55 92,56 L92,45 C83,44 76,38 74,30 Z" fill="#FE2C55"/>
  </g>
  <!-- White center layer -->
  <path d="M65,30 L65,75 C65,83 58,89 50,89 C42,89 36,83 36,75 C36,67 42,61 50,61 C52,61 54,61.5 56,62.5 L56,52 C54,51.5 52,51 50,51 C36,51 25,62 25,75 C25,88 36,99 50,99 C64,99 75,88 75,75 L75,48 C79,52 85,55 92,56 L92,45 C83,44 76,38 74,30 Z" fill="#FFFFFF"/>
</svg>
